<?xml version="1.0" encoding="UTF-8" standalone="no"?>
<!-- Created with Inkscape (http://www.inkscape.org/) -->

<svg
   width="270.93332mm"
   height="135.46666mm"
   viewBox="0 0 270.93332 135.46666"
   version="1.1"
   id="svg17668"
   xml:space="preserve"
   inkscape:version="1.2.2 (732a01da63, 2022-12-09)"
   sodipodi:docname="preview.svg"
   inkscape:export-filename="preview.png"
   inkscape:export-xdpi="499.8"
   inkscape:export-ydpi="499.8"
   xmlns:inkscape="http://www.inkscape.org/namespaces/inkscape"
   xmlns:sodipodi="http://sodipodi.sourceforge.net/DTD/sodipodi-0.dtd"
   xmlns="http://www.w3.org/2000/svg"
   xmlns:svg="http://www.w3.org/2000/svg"><sodipodi:namedview
     id="namedview17670"
     pagecolor="#000000"
     bordercolor="#666666"
     borderopacity="1.0"
     inkscape:showpageshadow="2"
     inkscape:pageopacity="0"
     inkscape:pagecheckerboard="0"
     inkscape:deskcolor="#d1d1d1"
     inkscape:document-units="mm"
     showgrid="false"
     inkscape:zoom="0.73851712"
     inkscape:cx="350.70277"
     inkscape:cy="265.39669"
     inkscape:window-width="1920"
     inkscape:window-height="1009"
     inkscape:window-x="-8"
     inkscape:window-y="-8"
     inkscape:window-maximized="1"
     inkscape:current-layer="g17856" /><defs
     id="defs17665" /><g
     inkscape:label="Layer 1"
     inkscape:groupmode="layer"
     id="layer1"
     transform="translate(40.526974,-58.375237)"><g
       id="g17856"
       transform="translate(0,-3.4334883)"
       style="fill:#ffffff"><g
         id="g17859"><path
           d="m 49.484263,138.27304 c 0,-2.19604 -1.48166,-3.57188 -4.78895,-3.57188 h -5.97959 v 10.68917 h 2.32834 v -3.30729 h 3.09562 l 2.69875,3.30729 h 2.83104 l -2.93687,-3.51896 c 1.85208,-0.50271 2.75166,-1.85208 2.75166,-3.59833 z m -8.4402,1.85208 v -3.43958 h 3.62479 c 1.82562,0 2.59291,0.66146 2.59291,1.74625 0,1.08479 -0.79375,1.71979 -2.35479,1.71979 z m 12.91166,5.26521 h 9.31334 v -1.95792 h -6.95855 v -2.51354 h 6.05896 v -1.95792 h -6.05896 v -2.27541 h 6.95855 v -1.98438 h -9.31334 z m 13.99646,0 h 2.32833 v -3.78354 h 5.8473 v -1.95792 h -5.8473 v -2.96333 h 6.77334 v -1.98438 h -9.10167 z m 19.102921,-10.95375 c -3.810001,0 -6.482291,2.16958 -6.482291,5.63562 0,3.46605 2.67229,5.63563 6.482291,5.63563 3.81,0 6.45583,-2.16958 6.45583,-5.63563 0,-3.46604 -2.64583,-5.63562 -6.45583,-5.63562 z m 0,9.28687 c -2.35479,0 -4.048131,-1.37583 -4.048131,-3.65125 0,-2.27541 1.693341,-3.65125 4.048131,-3.65125 2.35479,0 4.02166,1.37584 4.02166,3.65125 0,2.27542 -1.69333,3.65125 -4.02166,3.65125 z m 21.801666,-5.45041 c 0,-2.19604 -1.4552,-3.57188 -4.78895,-3.57188 h -5.979596 v 10.68917 h 2.328346 v -3.30729 h 3.09562 l 2.69875,3.30729 h 2.83104 l -2.93687,-3.51896 c 1.85208,-0.50271 2.75166,-1.85208 2.75166,-3.59833 z m -8.41375,1.85208 v -3.43958 h 3.6248 c 1.85208,0 2.56645,0.66146 2.56645,1.74625 0,1.08479 -0.79375,1.71979 -2.35479,1.71979 z m 28.2575,5.26521 h 9.31334 v -1.95792 h -6.95855 v -2.51354 h 6.05896 v -1.95792 h -6.05896 v -2.27541 h 6.95855 v -1.98438 h -9.31334 z m 24.765,-7.11729 c 0,-2.19604 -1.45521,-3.57188 -4.78896,-3.57188 h -5.97958 v 10.68917 h 2.32833 v -3.30729 h 3.09563 l 2.69875,3.30729 h 2.83104 l -2.93687,-3.51896 c 1.85208,-0.50271 2.75166,-1.85208 2.75166,-3.59833 z m -8.44021,1.85208 v -3.43958 h 3.6248 c 1.82562,0 2.56645,0.66146 2.56645,1.74625 0,1.08479 -0.79375,1.71979 -2.35479,1.71979 z m -26.61708,1.37583 h 3.25438 v 1.95792 c -0.635,0.23813 -1.29646,0.34396 -1.98438,0.37042 -2.83104,0 -4.49791,-1.45521 -4.49791,-3.78354 0,-2.32834 1.79916,-3.65125 4.39208,-3.65125 1.42875,0 2.8575,0.37041 4.1275,1.03187 v -2.11667 c -1.21709,-0.635 -2.88396,-0.89958 -4.20688,-0.89958 -3.96875,0 -6.72041,2.06375 -6.72041,5.63563 0,3.57187 2.56646,5.63562 6.61458,5.63562 1.21708,0 3.20146,-0.26458 4.63021,-1.05833 v -4.92125 h -5.60917 z m 49.50354,-56.250371 h -21.11375 l -7.11729,21.881001 -0.68792,-21.881001 h -17.6477 l -6.16479,18.785371 -6.19125,-18.785371 H 91.235514 l -0.34395,11.271232 c -0.39688,-2.381235 -1.29646,-4.656652 -2.8575,-6.535192 -2.75167,-3.65125 -6.852711,-4.55083 -9.181051,-4.7625 -0.5027,-0.0529 -1.05833,0 -1.82562,0 h -26.3525 v 21.298921 l -6.87917,-21.272461 h -21.14021 l -8.46666,25.876211 -19.84375,0.0265 3.86291,9.63083 h 12.85875 l -1.56104,4.84187 h 16.06021 l 7.64646,-29.209979 3.88937,14.737279 h -5.45041 l -2.01084,9.3927 h 9.89542 l 1.32292,5.05355 h 25.32062 l -0.26458,-9.15459 h 5.26521 l 4.86833,9.15459 h 29.924387 l -0.55563,-19.20875 6.19125,19.20875 h 7.03792 l 6.19125,-19.1823 -0.58209,19.1823 h 25.45292 l 7.64646,-29.077689 3.86291,14.763729 h -5.42395 l -2.01084,9.39271 h 9.89542 l 1.32292,4.9477 h 16.0602 l -1.5875,-4.86833 h 12.27667 l 3.78354,-9.44562 -19.15583,-0.0265 z M 65.094683,104.72387 64.856563,95.728067 h 8.17562 c 0.50271,0 1.00542,0.0529 1.48167,0.185207 1.87854,0.608537 2.54,2.275398 2.54,4.206846 0,2.19604 -0.74084,4.07458 -3.06917,4.55083 -0.3175,0.0529 -0.66146,0.0794 -1.00542,0.0794 z m 20.161251,7.96396 c 1.27,-1.05833 2.40771,-2.27542 3.33375,-3.65125 0.92604,-1.40229 1.61396,-2.93688 2.03729,-4.57729 0.0265,-0.15875 0.0794,-0.29104 0.10584,-0.44979 l -0.47625,15.84854 z"
           id="path17696"
           style="fill:#ffffff;stroke-width:0.264583" /></g><path
         d="m 174.87032,106.81413 3.09562,9.44562 h 18.0975 l 4.07458,-9.44562 c 0,0 -25.2677,0 -25.2677,0 z m -159.861255,0 h -25.26771 l 4.07458,9.44562 h 18.0975 c 0,-0.0265 3.09563,-9.44562 3.09563,-9.44562 z"
         id="path17698"
         style="stroke-width:0.264583;fill:#ffffff" /><text
         xml:space="preserve"
         style="font-size:25.4px;line-height:1.25;font-family:sans-serif;letter-spacing:0px;fill:#ffffff;stroke-width:0.264583"
         x="40.906811"
         y="173.52383"
         id="text17800"><tspan
           sodipodi:role="line"
           id="tspan17798"
           style="font-style:normal;font-variant:normal;font-weight:bold;font-stretch:normal;font-family:sans-serif;-inkscape-font-specification:'sans-serif Bold';fill:#ffffff;stroke-width:0.264583"
           x="40.906811"
           y="173.52383">ESCAPE</tspan></text></g></g></svg>
